<svg xmlns="http://www.w3.org/2000/svg" viewBox="0 0 145 115">
    <path fill="#060606"
        d="M69.69 103.93c-.5-.6-1.2-1-1.8-1.4-.5-.3-.7-.6-.6-1.3 1-5.9 1.9-11.8 2.8-17.8.6-4 1.2-8 1.9-12.2.9.6 1.8 1.2 2.6 1.8.2.2.1.5.1.7-.2 1.4-.4 2.9-.7 4.3-.5 3.2-1 6.5-1.5 9.7l-1.5 9.6c-.1.8-.2 1.7-.4 2.5.4.1.6-.2.9-.3 7.6-4 15.2-7.9 22.8-11.9l.6-.3c.2-.1.4-.2.6 0 .8.5 1.6 1.1 2.5 1.7-.4.2-.6.4-.9.5-8.8 4.6-17.5 9.2-26.3 13.8-.3.1-.6.2-.7.5zm-26.7-54c-.2 1.6-.5 3-.7 4.4-.7 4.6-1.5 9.1-2.2 13.7-.4 2.7-.9 5.4-1.3 8.1-.1.5-.3.7-.7.8-.8.2-1.7.5-2.5.8-.1-.2 0-.4 0-.6.8-5 1.6-9.9 2.4-14.9.8-4.8 1.5-9.7 2.3-14.5.1-.4.2-.7.7-.8.7-.2 1.3-.4 2-.6.4-.2.7-.1 1.1.2l5.1 5.1c5.4 5.4 10.9 10.8 16.3 16.1.1.1.2.3.4.4-1 .4-2 .6-2.9 1-.3.1-.5-.2-.6-.3-1.3-1.3-2.6-2.6-4-3.9-5-4.9-9.9-9.8-14.8-14.7-.2 0-.3-.1-.6-.3m26 15.5c-.8-.7-1.5-1.4-2.2-2.1-.2-.2-.1-.5 0-.7.6-1.8 1.2-3.6 1.9-5.4l6.6-18.9c.1-.2.2-.5.2-.7-.4-.1-.7.1-1 .2-8.2 2.6-16.3 5.1-24.5 7.7-1.3.4-.9.5-1.8-.4l-1.5-1.5c.2-.3.6-.3.9-.4 9.5-3 19-6 28.4-9 .7-.2 1.1-.1 1.6.4.3.4.8.8 1.2 1.2.4.3.4.7.3 1.1-1.1 3-2.1 6-3.2 9-2.2 6.3-4.4 12.6-6.6 18.8 0 .1-.1.4-.3.7m-1.7 6.3c-.2 1-.3 1.9-.4 2.9 0 .4-.3.4-.6.5-2.2.7-4.3 1.4-6.4 2-6.2 2-12.5 3.9-18.7 5.9-.2.1-.5.2-.8.3.2.3.5.5.8.6 7 4.8 14 9.7 21 14.5.6.4 1 .8.7 1.6-.2.7-.2 1.4-.4 2.1-.3 0-.5-.2-.7-.3-8.2-5.6-16.4-11.3-24.6-16.9-.5-.4-.7-.7-.6-1.4.1-.6.3-1.1.3-1.7 0-.5.3-.7.7-.8 9.7-3.1 19.5-6.1 29.2-9.2.1 0 .3 0 .5-.1m-22.2-61.3c-.1 1-.3 2-.4 2.9 0 .4-.4.4-.7.4-1.8.6-3.7 1.1-5.5 1.7-6.6 2-13.1 4-19.7 6-.2.1-.5.1-.7.4.3.2.5.4.8.6 7 4.9 13.9 9.9 20.9 14.8.5.4.7.7.6 1.4-.2.8-.3 1.5-.4 2.3-.3-.1-.5-.3-.8-.4l-24.3-17.1c-.6-.4-.8-.8-.6-1.4.1-.6.2-1.1.3-1.7 0-.4.2-.6.7-.8l6.9-2.1c7.4-2.2 14.7-4.5 22.1-6.7.2-.2.5-.2.8-.3m30 20.4c-.8.3-1.6.5-2.4.8-.5.2-.9.1-1.3-.3-2.7-2.8-5.5-5.5-8.3-8.3-3.3-3.3-6.6-6.6-10-9.9-.2-.2-.3-.5-.7-.6-.2 1-.4 2.1-.5 3.1-.8 4.7-1.5 9.4-2.3 14-.5 3-1 5.9-1.4 8.9-.1.5-.2.7-.7.8-.8.2-1.7.5-2.5.8-.1-.6.1-1.1.2-1.5l3-18.6c.5-3.3 1.1-6.6 1.6-9.9.1-.4.2-.6.6-.7.7-.2 1.3-.4 2-.6.5-.2.8-.1 1.2.3l8 8c4.3 4.3 8.7 8.6 13 12.9.1.2.4.4.5.8m3.682 42.481a20.4 20.4 0 0 1-.712-4.16c-.635-5.257-.08-10.33 1.965-15.2 3.138-7.6 8.544-13.236 15.913-16.83 3.631-1.752 7.526-2.983 11.586-3.701.279.32.151.712.13 1.011l.174 1.817c.072.406-.142.591-.548.663-2.65.617-5.313 1.433-7.797 2.562-6.722 2.939-11.852 7.492-15.12 14.08-2.209 4.357-3.135 9.003-2.878 13.933.109 1.31.217 2.622.426 3.94.072.405.05.705-.462.87-.819.243-1.745.58-2.677 1.015m13.858 9.69c.07-.997.032-1.902.102-2.9.028-.399.142-.591.647-.656 2.636-.417 5.186-1.04 7.57-2.177 8.794-3.896 14.57-10.51 16.928-19.868.963-3.742 1.129-7.54.795-11.372.014-.2-.065-.506-.05-.705.027-.4-.337-.926-.017-1.204.22-.286.72-.25 1.125-.323.713-.15 1.325-.308 2.044-.558.309 1.324.41 2.735.42 4.039a40 40 0 0 1-.294 8.5q-1.428 9.674-8.097 16.876c-4.766 5.08-10.696 8.174-17.413 9.609-1.232.415-2.45.63-3.76.74m29.26-57.199c.3.021.414-.171.62-.257 4.08-2.422 8.244-4.637 12.408-6.851.214-.186.52-.265.805-.044a77 77 0 0 0 2.789 1.698 3 3 0 0 1-.733.45c-5.205 2.744-10.501 5.38-15.705 8.125-.42.27-.74.55-1.068.927-1.912 2.974-3.93 6.04-5.843 9.015-.34.577-.34.577-.919.236s-1.055-.675-1.633-1.016-.577-.341-.243-.82l3.71-5.754c.782-1.149 1.465-2.304 2.247-3.452.22-.285.348-.677.376-1.076.304-5.793.702-11.48 1.107-17.265l.056-.798c.777.355 1.44.902 2.217 1.257.87.462 1.035.975.965 1.972-.358 3.685-.623 7.475-.881 11.166-.056.798-.211 1.59-.274 2.487" />
    <path fill="60606"
        d="M100.632 50.28c-.098 1.396-1.734 3.287-3.151 3.489-1.019.229-1.896-.133-2.545-.88s-.786-1.659-.424-2.536c.482-1.17 1.25-2.118 2.39-2.64.932-.436 1.83-.373 2.593.182.856.661 1.306 1.394 1.137 2.385m10.162 6.625c-.097 1.396-1.733 3.287-3.158 3.588-1.018.23-1.795-.125-2.545-.88q-.974-1.12-.43-2.435c.489-1.27 1.257-2.218 2.496-2.733 1.766-.879 3.77.564 3.637 2.46M11.89 25.83c.9.5 1.6 1.1 2.5 1.7.3.2.2.5.1.8l-.9 5.7c-1.1 6.8-2.2 13.5-3.3 20.3 0 .2-.2.5 0 .8.3-.2.6-.3.9-.5l22.5-12.3c.6-.3 1-.3 1.5.1.6.5 1.2.9 1.9 1.4-.2.3-.5.4-.7.5-8.7 4.8-17.4 9.5-26 14.3-.6.3-1 .4-1.5-.1-.4-.4-.9-.7-1.4-1-.4-.2-.5-.5-.4-.9.4-2.4.8-4.7 1.1-7.1 1.2-7.6 2.5-15.2 3.7-22.8q-.15-.45 0-.9" />
</svg>