<svg width="100%" height="100%" viewBox="0 0 283 79" xmlns="http://www.w3.org/2000/svg"
    xmlns:xlink="http://www.w3.org/1999/xlink" fill="none" overflow="hidden">
    <path
        d="M282.124 35.9005 282.124 42.9006C282.124 45.2875 281.799 47.3739 281.158 49.1564 280.513 50.9422 279.567 52.4242 278.321 53.6091 277.075 54.7906 275.526 55.6784 273.679 56.2692 271.829 56.8599 269.713 57.157 267.327 57.157L263.101 57.157C260.715 57.157 258.599 56.8599 256.748 56.2692 254.898 55.6784 253.352 54.7906 252.106 53.6091 250.86 52.4276 249.915 50.9422 249.27 49.1564 248.625 47.3739 248.304 45.2875 248.304 42.9006L248.304 35.9005C248.304 33.5137 248.625 31.4273 249.27 29.6448 249.915 27.8623 250.86 26.3838 252.106 25.2091 253.352 24.0379 254.898 23.1569 256.748 22.5662 258.599 21.9754 260.715 21.6783 263.101 21.6783L267.327 21.6783C269.713 21.6783 271.829 21.9754 273.679 22.5662 275.529 23.1569 277.075 24.0379 278.321 25.2091 279.567 26.3804 280.513 27.8589 281.158 29.6448 281.803 31.4307 282.124 33.5171 282.124 35.9005ZM274.546 36.481C274.546 34.9547 274.385 33.6605 274.061 32.5951 273.74 31.5297 273.273 30.6658 272.658 29.9999 272.047 29.3341 271.293 28.856 270.402 28.5658 269.511 28.2755 268.484 28.1287 267.323 28.1287L263.097 28.1287C261.957 28.1287 260.944 28.2755 260.049 28.5658 259.158 28.856 258.401 29.3341 257.776 29.9999 257.151 30.6658 256.684 31.5331 256.373 32.5951 256.062 33.6605 255.905 34.9547 255.905 36.481L255.905 42.3201C255.905 43.8465 256.062 45.1407 256.373 46.2061 256.684 47.2714 257.151 48.1354 257.776 48.8012 258.397 49.4671 259.158 49.952 260.049 50.2525 260.94 50.553 261.957 50.7032 263.097 50.7032L267.323 50.7032C268.484 50.7032 269.511 50.553 270.402 50.2525 271.293 49.952 272.047 49.4671 272.658 48.8012 273.269 48.1354 273.737 47.268 274.061 46.2061 274.382 45.1407 274.546 43.8465 274.546 42.3201L274.546 36.481Z"
        fill="#225453"></path>
    <path
        d="M192.943 42.3181C192.943 43.8445 192.783 45.1386 192.459 46.204 192.134 47.2694 191.663 48.1333 191.039 48.7992 190.414 49.4651 189.663 49.9499 188.782 50.2504 187.902 50.5509 186.881 50.7012 185.721 50.7012L181.587 50.7012C180.426 50.7012 179.399 50.5509 178.508 50.2504 177.617 49.9499 176.853 49.4651 176.218 48.7992 175.583 48.1333 175.112 47.266 174.798 46.204 174.487 45.1386 174.33 43.8445 174.33 42.3181L174.33 22.6119 166.722 22.6119 166.722 42.8986C166.722 45.2855 167.046 47.3719 167.688 49.1543 168.333 50.9402 169.282 52.4222 170.541 53.6071 171.797 54.7886 173.347 55.6764 175.183 56.2671 177.02 56.8579 179.143 57.1549 181.549 57.1549L185.748 57.1549C187.339 57.1549 188.81 57.0252 190.165 56.7691 191.52 56.5096 192.745 56.1203 193.841 55.591 194.937 55.0651 195.906 54.4095 196.743 53.6241 197.582 52.8388 198.279 51.9202 198.838 50.8651 199.398 49.8134 199.821 48.6182 200.112 47.2865 200.402 45.9548 200.548 44.4933 200.548 42.8986L200.548 22.6119 192.94 22.6119 192.94 42.3181 192.943 42.3181Z"
        fill="#225453"></path>
    <path
        d="M215.123 36.5113C215.123 34.9849 215.283 33.6907 215.607 32.6253 215.932 31.56 216.403 30.6961 217.027 30.0302 217.652 29.3643 218.403 28.8794 219.284 28.5789 220.164 28.2784 221.185 28.1282 222.345 28.1282L226.479 28.1282C227.64 28.1282 228.667 28.2784 229.558 28.5789 230.449 28.8794 231.213 29.3643 231.848 30.0302 232.483 30.6961 232.954 31.5634 233.268 32.6253 233.579 33.6907 233.736 34.9849 233.736 36.5113L233.736 56.2174 241.344 56.2174 241.344 35.9308C241.344 33.5439 241.02 31.4575 240.378 29.6751 239.733 27.8892 238.784 26.4072 237.525 25.2223 236.269 24.0408 234.719 23.153 232.883 22.5623 231.046 21.9715 228.923 21.6744 226.517 21.6744L222.318 21.6744C220.727 21.6744 219.256 21.8042 217.901 22.0603 216.546 22.3198 215.321 22.7091 214.225 23.2384 213.129 23.7642 212.16 24.4198 211.324 25.2052 210.484 25.9906 209.787 26.9092 209.228 27.9643 208.668 29.016 208.245 30.2112 207.955 31.5429 207.664 32.8746 207.518 34.3361 207.518 35.9308L207.518 56.2174 215.126 56.2174 215.126 36.5113 215.123 36.5113Z"
        fill="#225453"></path>
    <path
        d="M158.99 28.0775C159.505 29.679 159.765 31.6936 159.765 34.1249L159.765 56.2179 152.156 56.2179 152.156 34.9956C152.156 33.4693 152.044 32.2605 151.818 31.3658 151.593 30.4746 151.228 29.7951 150.723 29.3341 150.217 28.8731 149.562 28.5828 148.756 28.4633 147.951 28.3438 146.934 28.2858 145.708 28.2858L138.66 28.2858 138.66 56.2145 131.017 56.2145 131.017 28.2892 124.583 28.2892C123.357 28.2892 122.344 28.3472 121.535 28.4667 120.729 28.5863 120.074 28.8765 119.568 29.3375 119.063 29.7985 118.698 30.478 118.473 31.3692 118.247 32.2605 118.135 33.4727 118.135 34.9991L118.135 56.2214 110.526 56.2214 110.526 34.1283C110.526 31.7005 110.786 29.6824 111.301 28.0809 111.817 26.4794 112.632 25.2057 113.752 24.2599 114.868 23.314 116.281 22.6481 117.991 22.2588 119.685 21.8764 121.709 21.6818 124.064 21.6783L146.155 21.6783C148.541 21.6783 150.589 21.873 152.296 22.2588 154.006 22.6447 155.419 23.314 156.536 24.2599 157.652 25.2057 158.471 26.4794 158.986 28.0809L158.99 28.0775Z"
        fill="#225453"></path>
    <path
        d="M31.5309 74.3325C31.5309 76.5184 33.3092 78.2973 35.4943 78.2973 37.6794 78.2973 39.4577 76.5184 39.4577 74.3325L39.4577 38.959 31.5309 38.959 31.5309 74.3325Z"
        fill="#F48351"></path>
    <path
        d="M35.4943 0.53125C33.3092 0.53125 31.5309 2.3102 31.5309 4.49613L31.5309 38.9592 39.4577 38.9592 39.4577 4.49613C39.4577 2.3102 37.6794 0.53125 35.4943 0.53125Z"
        fill="#77C8E5"></path>
    <path
        d="M15.7654 68.5839C15.7654 70.7698 17.5437 72.5487 19.7288 72.5487 21.9139 72.5487 23.6922 70.7698 23.6922 68.5839L23.6922 38.9542 15.7654 38.9542 15.7654 68.5839Z"
        fill="#F48351"></path>
    <path
        d="M19.7288 6.27661C17.5437 6.27661 15.7654 8.05556 15.7654 10.2415L15.7654 38.9565 23.6922 38.9565 23.6922 10.2415C23.6922 8.05556 21.9139 6.27661 19.7288 6.27661Z"
        fill="#77C8E5"></path>
    <path
        d="M0 56.715C0 58.9009 1.77828 60.6798 3.96338 60.6798 6.14849 60.6798 7.92676 58.9009 7.92676 56.715L7.92676 38.959 0 38.959 0 56.715Z"
        fill="#F48351"></path>
    <path
        d="M3.96338 18.1479C1.77828 18.1479 0 19.9269 0 22.1128L0 38.9583 7.92676 38.9583 7.92676 22.1128C7.92676 19.9269 6.14849 18.1479 3.96338 18.1479Z"
        fill="#77C8E5"></path>
    <path
        d="M47.2964 68.5839C47.2964 70.7698 49.0747 72.5487 51.2598 72.5487 53.4449 72.5487 55.2232 70.7698 55.2232 68.5839L55.2232 38.9542 47.2964 38.9542 47.2964 68.5839Z"
        fill="#F48351"></path>
    <path
        d="M51.2598 6.27661C49.0747 6.27661 47.2964 8.05556 47.2964 10.2415L47.2964 38.9565 55.2232 38.9565 55.2232 10.2415C55.2232 8.05556 53.4449 6.27661 51.2598 6.27661Z"
        fill="#77C8E5"></path>
    <path
        d="M63.0618 56.715C63.0618 58.9009 64.8401 60.6798 67.0252 60.6798 69.2103 60.6798 70.9886 58.9009 70.9886 56.715L70.9886 38.959 63.0618 38.959 63.0618 56.715Z"
        fill="#F48351"></path>
    <path
        d="M67.0252 18.1479C64.8401 18.1479 63.0618 19.9269 63.0618 22.1128L63.0618 38.9583 70.9886 38.9583 70.9886 22.1128C70.9886 19.9269 69.2103 18.1479 67.0252 18.1479Z"
        fill="#77C8E5"></path>
    <path
        d="M47.2964 26.0542 47.2964 52.7763C47.2964 54.9622 49.0747 56.7412 51.2598 56.7412 53.4449 56.7412 55.2232 54.9622 55.2232 52.7763L55.2232 26.0542C55.2232 23.8683 53.4449 22.0894 51.2598 22.0894 49.0747 22.0894 47.2964 23.8683 47.2964 26.0542Z"
        fill="#225453"></path>
    <path
        d="M31.5309 16.7434 31.5309 62.0858C31.5309 64.2717 33.3092 66.0507 35.4943 66.0507 37.6794 66.0507 39.4577 64.2717 39.4577 62.0858L39.4577 16.7434C39.4577 14.5575 37.6794 12.7786 35.4943 12.7786 33.3092 12.7786 31.5309 14.5575 31.5309 16.7434Z"
        fill="#225453"></path>
    <path
        d="M15.7654 26.0542 15.7654 52.7763C15.7654 54.9622 17.5437 56.7412 19.7288 56.7412 21.9139 56.7412 23.6922 54.9622 23.6922 52.7763L23.6922 26.0542C23.6922 23.8683 21.9139 22.0894 19.7288 22.0894 17.5437 22.0894 15.7654 23.8683 15.7654 26.0542Z"
        fill="#225453"></path>
    <path
        d="M63.0618 37.3062 63.0618 41.5228C63.0618 43.7087 64.8401 45.4877 67.0252 45.4877 69.2103 45.4877 70.9886 43.7087 70.9886 41.5228L70.9886 37.3062C70.9886 35.1203 69.2103 33.3413 67.0252 33.3413 64.8401 33.3413 63.0618 35.1203 63.0618 37.3062Z"
        fill="#225453"></path>
    <path
        d="M0 37.3062 0 41.5228C0 43.7087 1.77828 45.4877 3.96338 45.4877 6.14849 45.4877 7.92676 43.7087 7.92676 41.5228L7.92676 37.3062C7.92676 35.1203 6.14849 33.3413 3.96338 33.3413 1.77828 33.3413 0 35.1203 0 37.3062Z"
        fill="#225453"></path>
</svg>