<svg width="132" height="43" viewBox="0 0 132 43" fill="none" xmlns="http://www.w3.org/2000/svg">
    <g clip-path="url(#clip0_9_94)">
        <path
            d="M129.118 23.7947H131.18V11.0624H127.074V12.9341H129.113V23.7899L129.118 23.7947ZM130.154 6.14801C129.766 6.14801 129.447 6.27279 129.195 6.52235C128.943 6.77191 128.817 7.08866 128.817 7.47259C128.817 7.85653 128.943 8.17328 129.195 8.42284C129.447 8.67239 129.766 8.79717 130.154 8.79717C130.541 8.79717 130.861 8.67239 131.113 8.42284C131.364 8.17328 131.49 7.85653 131.49 7.47259C131.49 7.08866 131.364 6.77191 131.113 6.52235C130.861 6.27279 130.541 6.14801 130.154 6.14801ZM123.83 18.602C123.83 19.6866 123.467 20.5552 122.746 21.2079C122.024 21.8654 121.032 22.1918 119.773 22.1918C118.916 22.1918 118.238 21.9998 117.734 21.6159C117.231 21.2319 116.979 20.728 116.979 20.0945C116.979 18.6787 117.938 17.9733 119.85 17.9733H123.83V18.5972V18.602ZM126.755 21.923C126.183 21.923 125.898 21.6159 125.898 21.0016V15.5113C125.898 14.0331 125.447 12.8957 124.552 12.1038C123.651 11.312 122.382 10.9184 120.736 10.9184C119.192 10.9184 117.938 11.2688 116.974 11.9647C116.01 12.6653 115.449 13.6348 115.299 14.8826H117.361C117.497 14.2347 117.85 13.7116 118.431 13.3228C119.012 12.9293 119.744 12.7373 120.635 12.7373C121.642 12.7373 122.426 12.9725 122.988 13.438C123.549 13.9035 123.83 14.5514 123.83 15.3865V16.2599H120.053C118.373 16.2599 117.095 16.6007 116.214 17.2822C115.333 17.9637 114.892 18.9475 114.892 20.2289C114.892 21.3759 115.323 22.283 116.19 22.95C117.051 23.6171 118.199 23.9483 119.627 23.9483C121.506 23.9483 122.944 23.2428 123.932 21.827C123.946 22.4749 124.135 22.9692 124.484 23.3004C124.837 23.6315 125.423 23.7995 126.246 23.7995H127.379V21.9278H126.75L126.755 21.923ZM110.432 22.5469C110.432 22.9644 110.568 23.3004 110.834 23.5595C111.101 23.8187 111.444 23.9483 111.866 23.9483C112.287 23.9483 112.631 23.8187 112.897 23.5595C113.163 23.3004 113.299 22.9644 113.299 22.5469C113.299 22.1294 113.163 21.7934 112.897 21.5343C112.626 21.2751 112.282 21.1455 111.866 21.1455C111.449 21.1455 111.101 21.2751 110.834 21.5343C110.563 21.7934 110.432 22.1294 110.432 22.5469ZM106.307 11.0624V17.4262C106.307 18.8563 105.973 19.9889 105.315 20.8192C104.651 21.6495 103.731 22.067 102.559 22.067C101.485 22.067 100.657 21.7214 100.08 21.0304C99.4993 20.3393 99.2136 19.3362 99.2136 18.0213V11.0576H97.151V18.146C97.151 20.1425 97.611 21.6063 98.5358 22.5373C99.4606 23.4684 100.686 23.9339 102.211 23.9339C103.973 23.9339 105.344 23.3196 106.317 22.0862L106.593 23.7851H108.379V11.0624H106.317H106.307ZM93.1079 18.602C93.1079 19.6866 92.7448 20.5552 92.0233 21.2079C91.3019 21.8654 90.3093 22.1918 89.0503 22.1918C88.1933 22.1918 87.5154 21.9998 87.0119 21.6159C86.5083 21.2319 86.2565 20.728 86.2565 20.0945C86.2565 18.6787 87.2152 17.9733 89.1278 17.9733H93.1079V18.5972V18.602ZM90.0139 10.9136C88.4693 10.9136 87.2152 11.264 86.2517 11.9599C85.2833 12.6605 84.7265 13.63 84.5764 14.8778H86.639C86.7746 14.2299 87.1281 13.7068 87.7091 13.318C88.2902 12.9245 89.0213 12.7325 89.9122 12.7325C90.9193 12.7325 91.7037 12.9677 92.2654 13.4332C92.8271 13.8987 93.1079 14.5466 93.1079 15.3817V16.2551H89.3312C87.651 16.2551 86.3727 16.5959 85.4915 17.2774C84.6103 17.9589 84.1696 18.9427 84.1696 20.2241C84.1696 21.3711 84.6006 22.2782 85.4673 22.9452C86.334 23.6123 87.4767 23.9435 88.9051 23.9435C90.7692 23.9435 92.2025 23.2284 93.2096 21.7982L93.3839 23.7947H95.1706V15.5065C95.1706 14.0283 94.7203 12.8909 93.8245 12.099C92.9239 11.3072 91.6553 10.9136 90.0091 10.9136M72.8879 16.1304C72.9895 15.1177 73.4059 14.2923 74.1468 13.6588C74.8827 13.0253 75.7398 12.7085 76.7178 12.7085C77.8073 12.7085 78.7127 13.0061 79.4245 13.606C80.1363 14.2059 80.543 15.0457 80.6447 16.1256H72.8879V16.1304ZM70.5976 17.431C70.5976 18.7123 70.8639 19.8498 71.3917 20.8384C71.9195 21.827 72.6651 22.5949 73.619 23.1324C74.5777 23.6747 75.6914 23.9435 76.9696 23.9435C78.4319 23.9435 79.6618 23.5307 80.6737 22.7101C81.6809 21.8846 82.3103 20.824 82.5621 19.5282H80.4704C80.2525 20.3441 79.8216 20.9776 79.1727 21.4383C78.5239 21.8942 77.7395 22.1246 76.8195 22.1246C75.6284 22.1246 74.66 21.7502 73.924 21.0016C73.1832 20.2529 72.8007 19.2547 72.7668 18.0069V17.8341H82.7413C82.7752 17.4358 82.7897 17.143 82.7897 16.9606C82.7558 15.7272 82.4798 14.657 81.9569 13.7404C81.4339 12.8237 80.7222 12.1278 79.8167 11.6431C78.9113 11.1584 77.8702 10.9184 76.6936 10.9184C75.517 10.9184 74.4421 11.1872 73.5222 11.7295C72.5973 12.2718 71.8807 13.0301 71.3675 14.0139C70.8542 14.9978 70.5976 16.1352 70.5976 17.4358M62.8166 22.1198C61.9934 22.1198 61.2574 21.9182 60.6135 21.5199C59.9646 21.1215 59.4659 20.56 59.1173 19.8354C58.7638 19.1107 58.5895 18.29 58.5895 17.3782C58.5895 16.4663 58.7638 15.6744 59.1173 14.969C59.4708 14.2635 59.9695 13.7116 60.6135 13.3228C61.2623 12.9293 61.9934 12.7373 62.8166 12.7373C64.09 12.7373 65.1213 13.1741 65.9009 14.0475C66.6804 14.921 67.0726 16.0488 67.0726 17.431C67.0726 18.8131 66.6804 19.9409 65.9009 20.8144C65.1213 21.6879 64.09 22.1246 62.8166 22.1246M63.0199 10.9136C61.1558 10.9136 59.6886 11.6479 58.6137 13.1117L58.3377 11.0672H56.5462V28.7907H58.6137V21.851C59.035 22.4989 59.6112 23.0124 60.352 23.3868C61.0928 23.7611 61.9789 23.9483 63.0199 23.9483C64.1965 23.9483 65.2521 23.6747 66.1914 23.1228C67.1307 22.5757 67.8667 21.8078 68.3945 20.8288C68.9223 19.845 69.1886 18.7171 69.1886 17.4358C69.1886 16.0872 68.9223 14.921 68.3945 13.9419C67.8667 12.9629 67.1356 12.2094 66.2011 11.6959C65.2714 11.1824 64.2062 10.9232 63.0151 10.9232"
            fill="#fff
            " />
    </g>
    <g clip-path="url(#clip1_9_94)">
        <path
            d="M35.0184 24.8782C38.8122 22.7784 42.0206 19.773 42.0206 16.4242C42.0206 13.0753 38.8122 10.0621 35.0184 7.97009C36.5953 10.3978 37.5086 13.3017 37.5086 16.4242C37.5086 19.5466 36.5875 22.4505 35.0184 24.8782Z"
            fill="#fff
            " />
        <path
            d="M9.31274 7.853C12.0527 3.62206 16.791 0 22.1695 0C27.5479 0 32.2785 3.62206 35.0184 7.853C31.6306 5.97952 27.1186 4.83982 22.1695 4.83982C17.2204 4.83982 12.7006 5.97952 9.31274 7.853Z"
            fill="#fff
            " />
        <path
            d="M22.1695 32.7312C27.5479 32.7312 32.2863 29.1092 35.0184 24.8782C31.6306 26.7517 27.1186 27.8914 22.1695 27.8914C17.2204 27.8914 12.7006 26.7517 9.31274 24.8782C12.0527 29.1092 16.7832 32.7312 22.1695 32.7312Z"
            fill="#fff
            " />
        <path
            d="M9.31277 7.97009C-7.90762 19.3827 1.56906 38.8747 14.9957 42.7778C3.55963 32.7312 3.32544 16.4242 9.31277 7.97009Z"
            fill="#fff
            " />
    </g>
    <defs>
        <clipPath id="clip0_9_94">
            <rect width="74.9392" height="22.6379" fill="#fff
            " transform="translate(56.5462 6.14801)" />
        </clipPath>
        <clipPath id="clip1_9_94">
            <rect width="42.0206" height="42.7778" fill="#fff
            " />
        </clipPath>
    </defs>
</svg>