<?xml version="1.0" encoding="UTF-8"?>
<!-- Created with Inkscape (http://www.inkscape.org/) -->
<svg width="700.4" height="203.61" version="1.1" viewBox="0 0 700.4 203.61" xml:space="preserve" xmlns="http://www.w3.org/2000/svg" xmlns:cc="http://creativecommons.org/ns#" xmlns:dc="http://purl.org/dc/elements/1.1/" xmlns:rdf="http://www.w3.org/1999/02/22-rdf-syntax-ns#"><metadata><rdf:RDF><cc:Work rdf:about=""><dc:format>image/svg+xml</dc:format><dc:type rdf:resource="http://purl.org/dc/dcmitype/StillImage"/><dc:title/></cc:Work></rdf:RDF></metadata><defs><marker id="marker8311" overflow="visible" orient="auto"><path transform="scale(-.6)" d="m8.7186 4.0337-10.926-4.0177 10.926-4.0177c-1.7455 2.3721-1.7354 5.6175-6e-7 8.0354z" fill-rule="evenodd" stroke="#000" stroke-linejoin="round" stroke-width=".625"/></marker><marker id="marker8217" overflow="visible" orient="auto"><path transform="scale(-.6)" d="m8.7186 4.0337-10.926-4.0177 10.926-4.0177c-1.7455 2.3721-1.7354 5.6175-6e-7 8.0354z" fill-rule="evenodd" stroke="#000" stroke-linejoin="round" stroke-width=".625"/></marker><marker id="Arrow2Mend" overflow="visible" orient="auto"><path transform="scale(-.6)" d="m8.7186 4.0337-10.926-4.0177 10.926-4.0177c-1.7455 2.3721-1.7354 5.6175-6e-7 8.0354z" fill-rule="evenodd" stroke="#000" stroke-linejoin="round" stroke-width=".625"/></marker><marker id="Arrow2Mend-7" overflow="visible" orient="auto"><path transform="scale(-.6)" d="m8.7186 4.0337-10.926-4.0177 10.926-4.0177c-1.7455 2.3721-1.7354 5.6175-6e-7 8.0354z" fill-rule="evenodd" stroke="#000" stroke-linejoin="round" stroke-width=".625"/></marker></defs><g transform="matrix(1.3333 0 0 -1.3333 -63.582 239.04)"><g fill="none" stroke="#000" stroke-linecap="round" stroke-miterlimit="10"><g stroke-linejoin="round"><path d="m345.33 145.23h13.4v-16.213" stroke-width="2"/><path d="m203.08 114.87v30.356h126.49" stroke-width="2"/><path d="m372.03 115.52h194.18" marker-end="url(#Arrow2Mend)" stroke-width="2.0003"/></g><path d="m62.273 115.52h113.81v59.013h291.76v-57.949" marker-start="url(#marker8311)" stroke-width="2"/></g><g stroke="#000"><path d="m341.54 134.18c-7.0294-7.0295-18.426-7.0295-25.456 0-7.0295 7.0294-7.0295 18.426 0 25.456 7.0294 7.0295 18.426 7.0295 25.456 0 7.0295-7.0294 7.0295-18.426 0-25.456" fill="#f3de8a" stroke-width=".75"/><path d="m345.33 82.454h13.4s0.0609 10.649 0.085 19.563" fill="none" stroke-linecap="round" stroke-linejoin="round" stroke-miterlimit="10" stroke-width="2"/><path d="m476.89 105.97c-5.272-5.2721-13.82-5.2721-19.092 0-5.2721 5.272-5.2721 13.82 0 19.092 5.272 5.2721 13.82 5.2721 19.092 0 5.2721-5.272 5.2721-13.82 0-19.092" fill="#ff8360" stroke-width=".75"/></g><g fill="none" stroke="#000" stroke-linecap="round" stroke-linejoin="round" stroke-miterlimit="10"><path d="m167.08 115.52h36.11" stroke-width="2"/><path d="m203.08 125.79v-43.337h125.6" stroke-width="2"/><path d="m394.66 114.82v-79.337" stroke-width="2.6465"/></g><g><g><path d="m341.54 70.563c-7.0294-7.0295-18.426-7.0295-25.456 0-7.0295 7.0294-7.0295 18.426 0 25.456 7.0294 7.0295 18.426 7.0295 25.456 0 7.0295-7.0294 7.0295-18.426 0-25.456" fill="#f3de8a" stroke="#000" stroke-width=".75"/><text transform="scale(1,-1)" x="212.9369" y="-225.68185" fill="#000000" font-family="'Fira Sans Condensed'" font-size="17.266px" font-stretch="condensed" stroke-width="2.16" style="font-feature-settings:normal;font-variant-caps:normal;font-variant-ligatures:normal;font-variant-numeric:normal"><tspan x="212.9369" y="-225.68185" font-family="'Fira Sans Condensed'" font-size="17.266px" font-stretch="condensed" stroke-width="2.16" style="font-feature-settings:normal;font-variant-caps:normal;font-variant-ligatures:normal;font-variant-numeric:normal"/></text>


<path d="m368.37 105.97c-5.272-5.2721-13.82-5.2721-19.092 0-5.2721 5.272-5.2721 13.82 0 19.092 5.272 5.2721 13.82 5.2721 19.092 0 5.2721-5.272 5.2721-13.82 0-19.092" fill="#ff8360" stroke="#000" stroke-width=".75"/></g><rect transform="scale(1,-1)" x="95.985" y="-128.01" width="56.896" height="24.325" fill="#afcab0" stroke="#000" stroke-width=".55622"/><text transform="scale(1,-1)" x="104.22482" y="-109.85056" fill="#000000" font-family="'Fira Sans Condensed'" font-size="17px" font-stretch="condensed" letter-spacing="0px" stroke-width=".75" word-spacing="0px" style="font-feature-settings:normal;font-variant-caps:normal;font-variant-ligatures:normal;font-variant-numeric:normal;line-height:1.25" xml:space="preserve"><tspan x="104.22482" y="-109.85056" stroke-width=".75">dilate</tspan></text>


<rect transform="scale(1,-1)" x="228.91" y="-158.3" width="56.896" height="24.325" fill="#afcab0" stroke="#000" stroke-width=".55622"/><text transform="scale(1,-1)" x="241.33881" y="-140.14406" fill="#000000" font-family="'Fira Sans Condensed'" font-size="17px" font-stretch="condensed" letter-spacing="0px" stroke-width=".75" word-spacing="0px" style="font-feature-settings:normal;font-variant-caps:normal;font-variant-ligatures:normal;font-variant-numeric:normal;line-height:1.25" xml:space="preserve"><tspan x="241.33881" y="-140.14406" stroke-width=".75">conv</tspan></text>


<rect transform="scale(1,-1)" x="229.5" y="-96.748" width="56.896" height="24.325" fill="#afcab0" stroke="#000" stroke-width=".55622"/></g><g fill="#000000" font-family="'Fira Sans Condensed'" font-stretch="condensed" letter-spacing="0px" word-spacing="0px"><text transform="scale(1,-1)" x="241.92229" y="-78.589401" font-size="17px" stroke-width=".75" style="font-feature-settings:normal;font-variant-caps:normal;font-variant-ligatures:normal;font-variant-numeric:normal;line-height:1.25" xml:space="preserve"><tspan x="241.92229" y="-78.589401" stroke-width=".75">conv</tspan></text>


<text transform="scale(1,-1)" x="321.65787" y="-139.92564" font-size="27.032px" stroke-width="1.1926" style="font-feature-settings:normal;font-variant-caps:normal;font-variant-ligatures:normal;font-variant-numeric:normal;line-height:1.25" xml:space="preserve"><tspan x="321.65787" y="-139.92564" stroke-width="1.1926">σ</tspan></text>


<text transform="scale(1,-1)" x="313.71078" y="-78.106155" font-size="17px" stroke-width=".75" style="font-feature-settings:normal;font-variant-caps:normal;font-variant-ligatures:normal;font-variant-numeric:normal;line-height:1.25" xml:space="preserve"><tspan x="313.71078" y="-78.106155" stroke-width=".75">tanh</tspan></text>



</g><g><rect transform="scale(1,-1)" x="375.9" y="-91.131" width="37.65" height="24.325" fill="#afcab0" stroke="#000" stroke-width=".55622"/><text transform="scale(1,-1)" x="384.32993" y="-72.972908" fill="#000000" font-family="'Fira Sans Condensed'" font-size="17px" font-stretch="condensed" letter-spacing="0px" stroke-width=".75" word-spacing="0px" style="font-feature-settings:normal;font-variant-caps:normal;font-variant-ligatures:normal;font-variant-numeric:normal;line-height:1.25" xml:space="preserve"><tspan x="384.32993" y="-72.972908" stroke-width=".75">1×1</tspan></text>


<rect transform="scale(1,-1)" x="405.65" y="-127.91" width="37.65" height="24.325" fill="#afcab0" stroke="#000" stroke-width=".55622"/><text transform="scale(1,-1)" x="414.07843" y="-109.74789" fill="#000000" font-family="'Fira Sans Condensed'" font-size="17px" font-stretch="condensed" letter-spacing="0px" stroke-width=".75" word-spacing="0px" style="font-feature-settings:normal;font-variant-caps:normal;font-variant-ligatures:normal;font-variant-numeric:normal;line-height:1.25" xml:space="preserve"><tspan x="414.07843" y="-109.74789" stroke-width=".75">1×1</tspan></text>


<text transform="scale(1,-1)" x="460.45062" y="-105.07739" fill="#000000" font-family="'Fira Sans Condensed'" font-size="30.916px" font-stretch="condensed" letter-spacing="0px" stroke-width="1.3639" word-spacing="0px" style="font-feature-settings:normal;font-variant-caps:normal;font-variant-ligatures:normal;font-variant-numeric:normal;line-height:1.25" xml:space="preserve"><tspan x="460.45062" y="-105.07739" stroke-width="1.3639">+</tspan></text>


</g><path d="m81.236 45.696h434.22" fill="none" marker-end="url(#Arrow2Mend-7)" marker-start="url(#marker8217)" stroke="#000" stroke-linecap="round" stroke-linejoin="round" stroke-miterlimit="10" stroke-width="2.0003"/><path d="m404.1 34.65c-5.272-5.2721-13.82-5.2721-19.092 0-5.2721 5.272-5.2721 13.82 0 19.092 5.272 5.2721 13.82 5.2721 19.092 0 5.2721-5.272 5.2721-13.82 0-19.092" fill="#ff8360" stroke="#000" stroke-width=".75"/><text transform="scale(1,-1)" x="387.6582" y="-33.756599" fill="#000000" font-family="'Fira Sans Condensed'" font-size="30.916px" font-stretch="condensed" letter-spacing="0px" stroke-width="1.3639" word-spacing="0px" style="font-feature-settings:normal;font-variant-caps:normal;font-variant-ligatures:normal;font-variant-numeric:normal;line-height:1.25" xml:space="preserve"><tspan x="387.6582" y="-33.756599" stroke-width="1.3639">+</tspan></text>


<g transform="matrix(.66874 0 0 .66874 197.03 -50.572)" stroke="#000"><circle transform="scale(1,-1)" cx="241.77" cy="-249.03" r="9.4216" fill="none" stroke-width="1.2716"/><circle transform="scale(1,-1)" cx="241.8" cy="-249.16" r="2.905" stroke-width=".75"/></g><g fill="#000000" font-family="'Fira Sans Condensed'" font-size="17px" font-stretch="condensed" letter-spacing="0px" stroke-width=".75" word-spacing="0px"><text transform="scale(1,-1)" x="442.18915" y="-48.273598" style="font-feature-settings:normal;font-variant-caps:normal;font-variant-ligatures:normal;font-variant-numeric:normal;line-height:1.25" xml:space="preserve"><tspan x="442.18915" y="-48.273598" stroke-width=".75">skip flow</tspan></text>
<text transform="scale(1,-1)" x="493.78641" y="-117.7221" style="font-feature-settings:normal;font-variant-caps:normal;font-variant-ligatures:normal;font-variant-numeric:normal;line-height:1.25" xml:space="preserve"><tspan x="493.78641" y="-117.7221" stroke-width=".75">feat flow</tspan></text>
<text transform="scale(1,-1)" x="386.31741" y="-159.55305" style="font-feature-settings:normal;font-variant-caps:normal;font-variant-ligatures:normal;font-variant-numeric:normal;line-height:1.25" xml:space="preserve"><tspan x="386.31741" y="-159.55305" stroke-width=".75">reference</tspan></text>
</g></g></svg>
