<svg xmlns="http://www.w3.org/2000/svg" viewBox="6 9 49 44">
    <path fill="#AECBFA"
        d="m14.968 26.655-4.606.292a2.166 2.166 0 0 0-2.03 2.163v5.627c0 1.115.847 2.05 1.958 2.155l4.676.453v-10.69z" />
    <path fill="#669DF6"
        d="m45.033 37.345 4.606-.292a2.166 2.166 0 0 0 2.03-2.163v-5.626c0-1.116-.847-2.05-1.958-2.156l-4.676-.453v10.69z" />
    <path fill="#AECBFA"
        d="m26.854 16.359-2.62-3.8a2.17 2.17 0 0 0-2.898-.629l-4.827 2.895a2.167 2.167 0 0 0-.843 2.788l2.017 4.243 9.17-5.5z" />
    <path fill="#669DF6"
        d="m33.147 47.641 2.619 3.8a2.17 2.17 0 0 0 2.899.629l4.827-2.895a2.167 2.167 0 0 0 .843-2.788l-2.017-4.243-9.17 5.5zm0-31.282 2.619-3.8a2.17 2.17 0 0 1 2.899-.629l4.827 2.895a2.167 2.167 0 0 1 .843 2.788l-2.017 4.243-9.17-5.5z" />
    <path fill="#AECBFA"
        d="m26.854 47.641-2.62 3.8a2.17 2.17 0 0 1-2.898.629l-4.827-2.895a2.167 2.167 0 0 1-.843-2.788l2.017-4.243 9.17 5.5z" />
    <path fill="#AECBFA"
        d="M30.005 44.965c-7.168 0-12.996-5.83-12.996-12.998s5.83-12.995 12.996-12.995v-4.334c-9.557 0-17.33 7.775-17.33 17.33s7.775 17.329 17.33 17.33z" />
    <path fill="#669DF6"
        d="M30.005 14.639v4.333C37.17 18.972 43 24.802 43 31.968c0 7.165-5.831 12.997-12.996 12.997V49.3c9.555 0 17.329-7.774 17.329-17.331 0-9.558-7.774-17.33-17.33-17.33" />
    <path fill="#4285F4"
        d="m40.42 35.018-.093.074c-2.284 1.77-6.023 1.588-8.214-.5-1.605-1.53-2.528-3.443-3.852-4.841-3.15-3.328-6.892-3.634-8.348-.949-1.569 2.893-.174 6.572-.174 6.572s.542-2.765 2.776-2.362 3.165 2.18 4.52 3.581c1.354 1.402 3.427 3.727 7.186 3.727s5.45-2.736 6.2-5.304zM23.55 23.349s2.041-2.182 6.281-2.182c2.986 0 5.99 4.07 7.023 5.44s1.811 2.561 3.557 2.258c0 0 .434 1.35.453 2.771 0 0-2.552 2.162-5.208-.366s-5.783-10.766-12.106-7.92z" />
</svg>