<svg xmlns="http://www.w3.org/2000/svg" viewBox="0 0 58 58">
    <path fill="#00E0D9"
        d="M0 10C0 4.477 4.477 0 10 0h37.999c5.523 0 10 4.477 10 10v32.319c0 5.714-7.23 8.193-10.737 3.682L36.299 31.9V49a9 9 0 0 1-9 9H10C4.478 58 0 53.523 0 48zm10-2a2 2 0 0 0-2 2v38a2 2 0 0 0 2 2h17.6c.552 0 .7-.448.7-1V26.067c0-5.713 7.23-8.193 10.736-3.682L50 36.487V10c0-1.105.104-2-1-2z" />
    <path fill="url(#a)"
        d="M0 10C0 4.477 4.477 0 10 0h37.999c5.523 0 10 4.477 10 10v32.319c0 5.714-7.23 8.193-10.737 3.682L36.299 31.9V49a9 9 0 0 1-9 9H10C4.478 58 0 53.523 0 48zm10-2a2 2 0 0 0-2 2v38a2 2 0 0 0 2 2h17.6c.552 0 .7-.448.7-1V26.067c0-5.713 7.23-8.193 10.736-3.682L50 36.487V10c0-1.105.104-2-1-2z" />
    <path fill="url(#b)" fill-opacity=".4"
        d="M0 10C0 4.477 4.477 0 10 0h37.999c5.523 0 10 4.477 10 10v32.319c0 5.714-7.23 8.193-10.737 3.682L36.299 31.9V49a9 9 0 0 1-9 9H10C4.478 58 0 53.523 0 48zm10-2a2 2 0 0 0-2 2v38a2 2 0 0 0 2 2h17.6c.552 0 .7-.448.7-1V26.067c0-5.713 7.23-8.193 10.736-3.682L50 36.487V10c0-1.105.104-2-1-2z" />
    <path fill="#63F655"
        d="M48 0c5.523 0 10 4.477 10 10v32.319c0 5.714-7.23 8.193-10.737 3.682L36.301 31.9V49a9 9 0 0 1-9 9 1 1 0 0 0 1-1V26.067c0-5.713 7.23-8.193 10.737-3.682L50 36.487V2a2 2 0 0 0-2-2" />
    <defs>
        <linearGradient id="a" x1="57.999" x2="6.998" y1="58" y2=".001" gradientUnits="userSpaceOnUse">
            <stop stop-color="#62F755" />
            <stop offset="1" stop-color="#8FF986" stop-opacity="0" />
        </linearGradient>
        <linearGradient id="b" x1="57.999" x2="23.549" y1="58" y2="44.601" gradientUnits="userSpaceOnUse">
            <stop stop-opacity=".9" />
            <stop offset="1" stop-color="#1A1A1A" stop-opacity="0" />
        </linearGradient>
    </defs>
</svg>