<svg xmlns="http://www.w3.org/2000/svg" viewBox="0 0 90 90">
    <path fill="#FADE4B"
        d="M6 0h12.947v4.737h18.948V0h14.208v4.736H71.05V0H84a6 6 0 0 1 6 6v12.947h-4.737v18.948H90v14.21h-4.737v18.948H90V84a6 6 0 0 1-6 6H71.05v-4.738H52.103V90H37.895v-4.737H18.947V90H6a6 6 0 0 1-6-6V71.053h4.737V52.105H0v-14.21h4.736V18.947H0V6a6 6 0 0 1 6-6m52.26 46.11q3.837-3.867 3.838-10.09 0-5.016-1.753-8.037-1.752-3.051-5.8-4.532-4.02-1.48-10.877-1.48h-16.95v5.68h5.68v34.17h-5.68v5.68h18.49v-5.68h-5.92V50.038h5.981q9.155-.06 12.992-3.928Zm-5.65-16.465q2.509 1.964 2.508 6.223 0 3.354-1.178 5.257-1.178 1.874-3.686 2.66-2.507.754-6.707.754h-4.26V27.651h4.743q6.074 0 8.58 1.994" />
    <path fill="#333"
        d="M62.098 36.02q0 6.223-3.837 10.09t-12.992 3.928h-5.982V61.82h5.922v5.68h-18.49v-5.68h5.68V27.65h-5.68v-5.68h16.949q6.858 0 10.877 1.48 4.047 1.48 5.8 4.532 1.753 3.021 1.753 8.037Zm-6.98-.152q0-4.26-2.507-6.223-2.508-1.994-8.58-1.994h-4.744v16.888h4.26q4.2 0 6.707-.755 2.508-.786 3.686-2.659 1.178-1.903 1.178-5.257" />
</svg>